<mxfile host="app.diagrams.net" agent="Mozilla/5.0 (Windows NT 10.0; Win64; x64) AppleWebKit/537.36 (KHTML, like Gecko) Chrome/135.0.0.0 Safari/537.36 Edg/135.0.0.0" version="26.2.9">
  <diagram name="Page-1" id="e7e014a7-5840-1c2e-5031-d8a46d1fe8dd">
    <mxGraphModel dx="1842" dy="1683" grid="1" gridSize="10" guides="1" tooltips="1" connect="1" arrows="1" fold="1" page="1" pageScale="1" pageWidth="1169" pageHeight="826" background="none" math="0" shadow="0">
      <root>
        <mxCell id="0" />
        <mxCell id="1" parent="0" />
        <mxCell id="GnsFQ2bvyRAYjjchj4tW-42" value="LOCALHOST" style="text;html=1;align=center;verticalAlign=middle;resizable=0;points=[];autosize=1;strokeColor=none;fillColor=none;" vertex="1" parent="1">
          <mxGeometry x="1211" y="280" width="100" height="30" as="geometry" />
        </mxCell>
        <mxCell id="GnsFQ2bvyRAYjjchj4tW-55" style="edgeStyle=orthogonalEdgeStyle;rounded=0;orthogonalLoop=1;jettySize=auto;html=1;exitX=1;exitY=0.5;exitDx=0;exitDy=0;entryX=0;entryY=0.5;entryDx=0;entryDy=0;" edge="1" parent="1" source="GnsFQ2bvyRAYjjchj4tW-46" target="GnsFQ2bvyRAYjjchj4tW-45">
          <mxGeometry relative="1" as="geometry" />
        </mxCell>
        <mxCell id="GnsFQ2bvyRAYjjchj4tW-46" value="" style="image;aspect=fixed;perimeter=ellipsePerimeter;html=1;align=center;shadow=0;dashed=0;spacingTop=3;image=img/lib/active_directory/database_server.svg;" vertex="1" parent="1">
          <mxGeometry x="1210" y="156.83" width="101" height="123.17" as="geometry" />
        </mxCell>
        <mxCell id="GnsFQ2bvyRAYjjchj4tW-48" value="" style="group" vertex="1" connectable="0" parent="1">
          <mxGeometry x="1810" y="-120" width="123.40000000000009" height="175" as="geometry" />
        </mxCell>
        <mxCell id="GnsFQ2bvyRAYjjchj4tW-44" value="FIREBASE REALTIME&lt;div&gt;DATABASE SERVER&lt;/div&gt;&lt;div&gt;(ONLINE)&lt;/div&gt;" style="text;html=1;align=center;verticalAlign=middle;resizable=0;points=[];autosize=1;strokeColor=none;fillColor=none;" vertex="1" parent="GnsFQ2bvyRAYjjchj4tW-48">
          <mxGeometry x="-39.99999999999991" y="115" width="150" height="60" as="geometry" />
        </mxCell>
        <mxCell id="GnsFQ2bvyRAYjjchj4tW-47" value="" style="image;aspect=fixed;perimeter=ellipsePerimeter;html=1;align=center;shadow=0;dashed=0;spacingTop=3;image=img/lib/active_directory/web_server.svg;" vertex="1" parent="GnsFQ2bvyRAYjjchj4tW-48">
          <mxGeometry width="96.8" height="121" as="geometry" />
        </mxCell>
        <mxCell id="GnsFQ2bvyRAYjjchj4tW-50" value="" style="group" vertex="1" connectable="0" parent="1">
          <mxGeometry x="1517.7" y="154.83" width="131.4000000000001" height="169.99999999999997" as="geometry" />
        </mxCell>
        <mxCell id="GnsFQ2bvyRAYjjchj4tW-45" value="" style="image;aspect=fixed;perimeter=ellipsePerimeter;html=1;align=center;shadow=0;dashed=0;spacingTop=3;image=img/lib/active_directory/windows_server.svg;" vertex="1" parent="GnsFQ2bvyRAYjjchj4tW-50">
          <mxGeometry width="104" height="126.83" as="geometry" />
        </mxCell>
        <mxCell id="GnsFQ2bvyRAYjjchj4tW-49" value="LOCAL WINDOW&amp;nbsp;&lt;div&gt;SERVER&amp;nbsp;&lt;span style=&quot;background-color: transparent; color: light-dark(rgb(0, 0, 0), rgb(255, 255, 255));&quot;&gt;BACKEND&lt;/span&gt;&lt;/div&gt;&lt;div&gt;&lt;span style=&quot;background-color: transparent; color: light-dark(rgb(0, 0, 0), rgb(255, 255, 255));&quot;&gt;(ONLINE)&lt;/span&gt;&lt;/div&gt;" style="text;html=1;align=center;verticalAlign=middle;resizable=0;points=[];autosize=1;strokeColor=none;fillColor=none;" vertex="1" parent="GnsFQ2bvyRAYjjchj4tW-50">
          <mxGeometry x="1.400000000000091" y="109.99999999999997" width="130" height="60" as="geometry" />
        </mxCell>
        <mxCell id="GnsFQ2bvyRAYjjchj4tW-59" style="rounded=0;orthogonalLoop=1;jettySize=auto;html=1;exitX=0;exitY=0;exitDx=0;exitDy=0;entryX=1;entryY=0.75;entryDx=0;entryDy=0;" edge="1" parent="1" source="GnsFQ2bvyRAYjjchj4tW-51" target="GnsFQ2bvyRAYjjchj4tW-47">
          <mxGeometry relative="1" as="geometry" />
        </mxCell>
        <mxCell id="GnsFQ2bvyRAYjjchj4tW-51" value="" style="image;aspect=fixed;perimeter=ellipsePerimeter;html=1;align=center;shadow=0;dashed=0;spacingTop=3;image=img/lib/active_directory/generic_server.svg;" vertex="1" parent="1">
          <mxGeometry x="2100" y="156.83" width="67.2" height="120" as="geometry" />
        </mxCell>
        <mxCell id="GnsFQ2bvyRAYjjchj4tW-52" value="FRONTEND&amp;nbsp;&lt;div&gt;WEBSITE SYSTEM&lt;br&gt;(ONLINE)&lt;/div&gt;" style="text;html=1;align=center;verticalAlign=middle;resizable=0;points=[];autosize=1;strokeColor=none;fillColor=none;" vertex="1" parent="1">
          <mxGeometry x="2065" y="260" width="130" height="60" as="geometry" />
        </mxCell>
        <mxCell id="GnsFQ2bvyRAYjjchj4tW-54" style="rounded=0;orthogonalLoop=1;jettySize=auto;html=1;exitX=0;exitY=0.75;exitDx=0;exitDy=0;entryX=1;entryY=0.75;entryDx=0;entryDy=0;" edge="1" parent="1" source="GnsFQ2bvyRAYjjchj4tW-45" target="GnsFQ2bvyRAYjjchj4tW-46">
          <mxGeometry relative="1" as="geometry" />
        </mxCell>
        <mxCell id="GnsFQ2bvyRAYjjchj4tW-56" style="rounded=0;orthogonalLoop=1;jettySize=auto;html=1;exitX=1;exitY=0;exitDx=0;exitDy=0;entryX=0;entryY=0.5;entryDx=0;entryDy=0;" edge="1" parent="1" source="GnsFQ2bvyRAYjjchj4tW-45" target="GnsFQ2bvyRAYjjchj4tW-47">
          <mxGeometry relative="1" as="geometry" />
        </mxCell>
        <mxCell id="GnsFQ2bvyRAYjjchj4tW-57" style="rounded=0;orthogonalLoop=1;jettySize=auto;html=1;exitX=0;exitY=0.75;exitDx=0;exitDy=0;entryX=1;entryY=0.25;entryDx=0;entryDy=0;" edge="1" parent="1" source="GnsFQ2bvyRAYjjchj4tW-47" target="GnsFQ2bvyRAYjjchj4tW-45">
          <mxGeometry relative="1" as="geometry" />
        </mxCell>
        <mxCell id="GnsFQ2bvyRAYjjchj4tW-58" style="rounded=0;orthogonalLoop=1;jettySize=auto;html=1;exitX=1;exitY=0.5;exitDx=0;exitDy=0;entryX=0.25;entryY=0;entryDx=0;entryDy=0;" edge="1" parent="1" source="GnsFQ2bvyRAYjjchj4tW-47" target="GnsFQ2bvyRAYjjchj4tW-51">
          <mxGeometry relative="1" as="geometry" />
        </mxCell>
        <mxCell id="GnsFQ2bvyRAYjjchj4tW-60" value="PUERICULTURE SYSTEM" style="swimlane;fontStyle=0;childLayout=stackLayout;horizontal=1;startSize=26;fillColor=none;horizontalStack=0;resizeParent=1;resizeParentMax=0;resizeLast=0;collapsible=1;marginBottom=0;html=1;" vertex="1" parent="1">
          <mxGeometry x="2040" y="320" width="200" height="104" as="geometry" />
        </mxCell>
        <mxCell id="GnsFQ2bvyRAYjjchj4tW-61" value="PAYROLL SYSTEM" style="text;strokeColor=none;fillColor=none;align=left;verticalAlign=top;spacingLeft=4;spacingRight=4;overflow=hidden;rotatable=0;points=[[0,0.5],[1,0.5]];portConstraint=eastwest;whiteSpace=wrap;html=1;" vertex="1" parent="GnsFQ2bvyRAYjjchj4tW-60">
          <mxGeometry y="26" width="200" height="26" as="geometry" />
        </mxCell>
        <mxCell id="GnsFQ2bvyRAYjjchj4tW-62" value="ATTENDANCE SYSTEM" style="text;strokeColor=none;fillColor=none;align=left;verticalAlign=top;spacingLeft=4;spacingRight=4;overflow=hidden;rotatable=0;points=[[0,0.5],[1,0.5]];portConstraint=eastwest;whiteSpace=wrap;html=1;" vertex="1" parent="GnsFQ2bvyRAYjjchj4tW-60">
          <mxGeometry y="52" width="200" height="26" as="geometry" />
        </mxCell>
        <mxCell id="GnsFQ2bvyRAYjjchj4tW-63" value="HRIS SYSTEM" style="text;strokeColor=none;fillColor=none;align=left;verticalAlign=top;spacingLeft=4;spacingRight=4;overflow=hidden;rotatable=0;points=[[0,0.5],[1,0.5]];portConstraint=eastwest;whiteSpace=wrap;html=1;" vertex="1" parent="GnsFQ2bvyRAYjjchj4tW-60">
          <mxGeometry y="78" width="200" height="26" as="geometry" />
        </mxCell>
        <mxCell id="GnsFQ2bvyRAYjjchj4tW-64" value="GENERAL REQ/RES" style="swimlane;fontStyle=0;childLayout=stackLayout;horizontal=1;startSize=26;fillColor=none;horizontalStack=0;resizeParent=1;resizeParentMax=0;resizeLast=0;collapsible=1;marginBottom=0;html=1;" vertex="1" parent="1">
          <mxGeometry x="1788" y="59" width="140" height="104" as="geometry" />
        </mxCell>
        <mxCell id="GnsFQ2bvyRAYjjchj4tW-65" value="ID" style="text;strokeColor=none;fillColor=none;align=left;verticalAlign=top;spacingLeft=4;spacingRight=4;overflow=hidden;rotatable=0;points=[[0,0.5],[1,0.5]];portConstraint=eastwest;whiteSpace=wrap;html=1;" vertex="1" parent="GnsFQ2bvyRAYjjchj4tW-64">
          <mxGeometry y="26" width="140" height="26" as="geometry" />
        </mxCell>
        <mxCell id="GnsFQ2bvyRAYjjchj4tW-66" value="KEY" style="text;strokeColor=none;fillColor=none;align=left;verticalAlign=top;spacingLeft=4;spacingRight=4;overflow=hidden;rotatable=0;points=[[0,0.5],[1,0.5]];portConstraint=eastwest;whiteSpace=wrap;html=1;" vertex="1" parent="GnsFQ2bvyRAYjjchj4tW-64">
          <mxGeometry y="52" width="140" height="26" as="geometry" />
        </mxCell>
        <mxCell id="GnsFQ2bvyRAYjjchj4tW-69" value="VALUE" style="text;strokeColor=none;fillColor=none;align=left;verticalAlign=top;spacingLeft=4;spacingRight=4;overflow=hidden;rotatable=0;points=[[0,0.5],[1,0.5]];portConstraint=eastwest;whiteSpace=wrap;html=1;" vertex="1" parent="GnsFQ2bvyRAYjjchj4tW-64">
          <mxGeometry y="78" width="140" height="26" as="geometry" />
        </mxCell>
        <mxCell id="GnsFQ2bvyRAYjjchj4tW-70" style="rounded=0;orthogonalLoop=1;jettySize=auto;html=1;exitX=1;exitY=1;exitDx=0;exitDy=0;entryX=-0.009;entryY=0.279;entryDx=0;entryDy=0;entryPerimeter=0;" edge="1" parent="1" source="GnsFQ2bvyRAYjjchj4tW-47" target="GnsFQ2bvyRAYjjchj4tW-51">
          <mxGeometry relative="1" as="geometry" />
        </mxCell>
        <mxCell id="GnsFQ2bvyRAYjjchj4tW-71" style="rounded=0;orthogonalLoop=1;jettySize=auto;html=1;exitX=0.75;exitY=0;exitDx=0;exitDy=0;entryX=0;entryY=0.25;entryDx=0;entryDy=0;" edge="1" parent="1" source="GnsFQ2bvyRAYjjchj4tW-45" target="GnsFQ2bvyRAYjjchj4tW-47">
          <mxGeometry relative="1" as="geometry" />
        </mxCell>
        <mxCell id="GnsFQ2bvyRAYjjchj4tW-73" style="rounded=0;orthogonalLoop=1;jettySize=auto;html=1;exitX=0;exitY=0.25;exitDx=0;exitDy=0;entryX=1;entryY=0.25;entryDx=0;entryDy=0;" edge="1" parent="1" source="GnsFQ2bvyRAYjjchj4tW-45" target="GnsFQ2bvyRAYjjchj4tW-46">
          <mxGeometry relative="1" as="geometry" />
        </mxCell>
        <mxCell id="GnsFQ2bvyRAYjjchj4tW-74" value="RECEIVE/ REQ /RES" style="swimlane;fontStyle=0;childLayout=stackLayout;horizontal=1;startSize=26;fillColor=none;horizontalStack=0;resizeParent=1;resizeParentMax=0;resizeLast=0;collapsible=1;marginBottom=0;html=1;" vertex="1" parent="1">
          <mxGeometry x="1490" y="320" width="200" height="104" as="geometry" />
        </mxCell>
        <mxCell id="GnsFQ2bvyRAYjjchj4tW-75" value="PAYROLL REQ/RES" style="text;strokeColor=none;fillColor=none;align=left;verticalAlign=top;spacingLeft=4;spacingRight=4;overflow=hidden;rotatable=0;points=[[0,0.5],[1,0.5]];portConstraint=eastwest;whiteSpace=wrap;html=1;" vertex="1" parent="GnsFQ2bvyRAYjjchj4tW-74">
          <mxGeometry y="26" width="200" height="26" as="geometry" />
        </mxCell>
        <mxCell id="GnsFQ2bvyRAYjjchj4tW-76" value="ATTENDANCE REQ/RES" style="text;strokeColor=none;fillColor=none;align=left;verticalAlign=top;spacingLeft=4;spacingRight=4;overflow=hidden;rotatable=0;points=[[0,0.5],[1,0.5]];portConstraint=eastwest;whiteSpace=wrap;html=1;" vertex="1" parent="GnsFQ2bvyRAYjjchj4tW-74">
          <mxGeometry y="52" width="200" height="26" as="geometry" />
        </mxCell>
        <mxCell id="GnsFQ2bvyRAYjjchj4tW-77" value="HRIS REQ/RES" style="text;strokeColor=none;fillColor=none;align=left;verticalAlign=top;spacingLeft=4;spacingRight=4;overflow=hidden;rotatable=0;points=[[0,0.5],[1,0.5]];portConstraint=eastwest;whiteSpace=wrap;html=1;" vertex="1" parent="GnsFQ2bvyRAYjjchj4tW-74">
          <mxGeometry y="78" width="200" height="26" as="geometry" />
        </mxCell>
        <mxCell id="GnsFQ2bvyRAYjjchj4tW-78" value="PAYROLL TABLE" style="swimlane;fontStyle=0;childLayout=stackLayout;horizontal=1;startSize=26;fillColor=none;horizontalStack=0;resizeParent=1;resizeParentMax=0;resizeLast=0;collapsible=1;marginBottom=0;html=1;" vertex="1" collapsed="1" parent="1">
          <mxGeometry x="1788" y="176" width="142" height="30" as="geometry">
            <mxRectangle x="1788" y="176" width="140" height="104" as="alternateBounds" />
          </mxGeometry>
        </mxCell>
        <mxCell id="GnsFQ2bvyRAYjjchj4tW-79" value="ID" style="text;strokeColor=none;fillColor=none;align=left;verticalAlign=top;spacingLeft=4;spacingRight=4;overflow=hidden;rotatable=0;points=[[0,0.5],[1,0.5]];portConstraint=eastwest;whiteSpace=wrap;html=1;" vertex="1" parent="GnsFQ2bvyRAYjjchj4tW-78">
          <mxGeometry y="26" width="140" height="26" as="geometry" />
        </mxCell>
        <mxCell id="GnsFQ2bvyRAYjjchj4tW-80" value="KEY" style="text;strokeColor=none;fillColor=none;align=left;verticalAlign=top;spacingLeft=4;spacingRight=4;overflow=hidden;rotatable=0;points=[[0,0.5],[1,0.5]];portConstraint=eastwest;whiteSpace=wrap;html=1;" vertex="1" parent="GnsFQ2bvyRAYjjchj4tW-78">
          <mxGeometry y="52" width="140" height="26" as="geometry" />
        </mxCell>
        <mxCell id="GnsFQ2bvyRAYjjchj4tW-81" value="VALUE" style="text;strokeColor=none;fillColor=none;align=left;verticalAlign=top;spacingLeft=4;spacingRight=4;overflow=hidden;rotatable=0;points=[[0,0.5],[1,0.5]];portConstraint=eastwest;whiteSpace=wrap;html=1;" vertex="1" parent="GnsFQ2bvyRAYjjchj4tW-78">
          <mxGeometry y="78" width="140" height="26" as="geometry" />
        </mxCell>
        <mxCell id="GnsFQ2bvyRAYjjchj4tW-82" value="HRIS TABLE" style="swimlane;fontStyle=0;childLayout=stackLayout;horizontal=1;startSize=26;fillColor=none;horizontalStack=0;resizeParent=1;resizeParentMax=0;resizeLast=0;collapsible=1;marginBottom=0;html=1;" vertex="1" collapsed="1" parent="1">
          <mxGeometry x="1788" y="210" width="142" height="30" as="geometry">
            <mxRectangle x="1788" y="290" width="140" height="104" as="alternateBounds" />
          </mxGeometry>
        </mxCell>
        <mxCell id="GnsFQ2bvyRAYjjchj4tW-83" value="ID" style="text;strokeColor=none;fillColor=none;align=left;verticalAlign=top;spacingLeft=4;spacingRight=4;overflow=hidden;rotatable=0;points=[[0,0.5],[1,0.5]];portConstraint=eastwest;whiteSpace=wrap;html=1;" vertex="1" parent="GnsFQ2bvyRAYjjchj4tW-82">
          <mxGeometry y="26" width="140" height="26" as="geometry" />
        </mxCell>
        <mxCell id="GnsFQ2bvyRAYjjchj4tW-84" value="KEY" style="text;strokeColor=none;fillColor=none;align=left;verticalAlign=top;spacingLeft=4;spacingRight=4;overflow=hidden;rotatable=0;points=[[0,0.5],[1,0.5]];portConstraint=eastwest;whiteSpace=wrap;html=1;" vertex="1" parent="GnsFQ2bvyRAYjjchj4tW-82">
          <mxGeometry y="52" width="140" height="26" as="geometry" />
        </mxCell>
        <mxCell id="GnsFQ2bvyRAYjjchj4tW-85" value="VALUE" style="text;strokeColor=none;fillColor=none;align=left;verticalAlign=top;spacingLeft=4;spacingRight=4;overflow=hidden;rotatable=0;points=[[0,0.5],[1,0.5]];portConstraint=eastwest;whiteSpace=wrap;html=1;" vertex="1" parent="GnsFQ2bvyRAYjjchj4tW-82">
          <mxGeometry y="78" width="140" height="26" as="geometry" />
        </mxCell>
        <mxCell id="GnsFQ2bvyRAYjjchj4tW-86" value="ATTENDANCE TABLE" style="swimlane;fontStyle=0;childLayout=stackLayout;horizontal=1;startSize=26;fillColor=none;horizontalStack=0;resizeParent=1;resizeParentMax=0;resizeLast=0;collapsible=1;marginBottom=0;html=1;" vertex="1" collapsed="1" parent="1">
          <mxGeometry x="1788" y="250" width="142" height="30" as="geometry">
            <mxRectangle x="1788" y="250" width="140" height="104" as="alternateBounds" />
          </mxGeometry>
        </mxCell>
        <mxCell id="GnsFQ2bvyRAYjjchj4tW-87" value="ID" style="text;strokeColor=none;fillColor=none;align=left;verticalAlign=top;spacingLeft=4;spacingRight=4;overflow=hidden;rotatable=0;points=[[0,0.5],[1,0.5]];portConstraint=eastwest;whiteSpace=wrap;html=1;" vertex="1" parent="GnsFQ2bvyRAYjjchj4tW-86">
          <mxGeometry y="26" width="140" height="26" as="geometry" />
        </mxCell>
        <mxCell id="GnsFQ2bvyRAYjjchj4tW-88" value="KEY" style="text;strokeColor=none;fillColor=none;align=left;verticalAlign=top;spacingLeft=4;spacingRight=4;overflow=hidden;rotatable=0;points=[[0,0.5],[1,0.5]];portConstraint=eastwest;whiteSpace=wrap;html=1;" vertex="1" parent="GnsFQ2bvyRAYjjchj4tW-86">
          <mxGeometry y="52" width="140" height="26" as="geometry" />
        </mxCell>
        <mxCell id="GnsFQ2bvyRAYjjchj4tW-89" value="VALUE" style="text;strokeColor=none;fillColor=none;align=left;verticalAlign=top;spacingLeft=4;spacingRight=4;overflow=hidden;rotatable=0;points=[[0,0.5],[1,0.5]];portConstraint=eastwest;whiteSpace=wrap;html=1;" vertex="1" parent="GnsFQ2bvyRAYjjchj4tW-86">
          <mxGeometry y="78" width="140" height="26" as="geometry" />
        </mxCell>
        <mxCell id="GnsFQ2bvyRAYjjchj4tW-90" value="LOCAL DATA (OFFLINE)" style="swimlane;fontStyle=0;childLayout=stackLayout;horizontal=1;startSize=26;fillColor=none;horizontalStack=0;resizeParent=1;resizeParentMax=0;resizeLast=0;collapsible=1;marginBottom=0;html=1;" vertex="1" parent="1">
          <mxGeometry x="1161" y="330" width="200" height="104" as="geometry" />
        </mxCell>
        <mxCell id="GnsFQ2bvyRAYjjchj4tW-91" value="HRIS DATA" style="text;strokeColor=none;fillColor=none;align=left;verticalAlign=top;spacingLeft=4;spacingRight=4;overflow=hidden;rotatable=0;points=[[0,0.5],[1,0.5]];portConstraint=eastwest;whiteSpace=wrap;html=1;" vertex="1" parent="GnsFQ2bvyRAYjjchj4tW-90">
          <mxGeometry y="26" width="200" height="26" as="geometry" />
        </mxCell>
        <mxCell id="GnsFQ2bvyRAYjjchj4tW-92" value="PAYROLL DATA" style="text;strokeColor=none;fillColor=none;align=left;verticalAlign=top;spacingLeft=4;spacingRight=4;overflow=hidden;rotatable=0;points=[[0,0.5],[1,0.5]];portConstraint=eastwest;whiteSpace=wrap;html=1;" vertex="1" parent="GnsFQ2bvyRAYjjchj4tW-90">
          <mxGeometry y="52" width="200" height="26" as="geometry" />
        </mxCell>
        <mxCell id="GnsFQ2bvyRAYjjchj4tW-93" value="ATTENDANCE DATA" style="text;strokeColor=none;fillColor=none;align=left;verticalAlign=top;spacingLeft=4;spacingRight=4;overflow=hidden;rotatable=0;points=[[0,0.5],[1,0.5]];portConstraint=eastwest;whiteSpace=wrap;html=1;" vertex="1" parent="GnsFQ2bvyRAYjjchj4tW-90">
          <mxGeometry y="78" width="200" height="26" as="geometry" />
        </mxCell>
        <mxCell id="GnsFQ2bvyRAYjjchj4tW-94" value="&lt;font style=&quot;font-size: 36px;&quot;&gt;DATABASE SCTRUCTURE SWETUP&lt;/font&gt;&lt;div&gt;&lt;br&gt;&lt;/div&gt;" style="text;html=1;align=center;verticalAlign=middle;resizable=0;points=[];autosize=1;strokeColor=none;fillColor=none;" vertex="1" parent="1">
          <mxGeometry x="1556.7" y="-483" width="630" height="70" as="geometry" />
        </mxCell>
        <mxCell id="GnsFQ2bvyRAYjjchj4tW-95" value="API LINK WIRE" style="text;html=1;align=center;verticalAlign=middle;resizable=0;points=[];autosize=1;strokeColor=none;fillColor=none;" vertex="1" parent="1">
          <mxGeometry x="1580" y="20" width="110" height="30" as="geometry" />
        </mxCell>
        <mxCell id="GnsFQ2bvyRAYjjchj4tW-96" value="API LINK WIRE" style="text;html=1;align=center;verticalAlign=middle;resizable=0;points=[];autosize=1;strokeColor=none;fillColor=none;" vertex="1" parent="1">
          <mxGeometry x="2010" y="29" width="110" height="30" as="geometry" />
        </mxCell>
        <mxCell id="GnsFQ2bvyRAYjjchj4tW-97" value="API LINK WIRE" style="text;html=1;align=center;verticalAlign=middle;resizable=0;points=[];autosize=1;strokeColor=none;fillColor=none;" vertex="1" parent="1">
          <mxGeometry x="1361" y="156.82999999999998" width="110" height="30" as="geometry" />
        </mxCell>
        <mxCell id="GnsFQ2bvyRAYjjchj4tW-103" style="rounded=0;orthogonalLoop=1;jettySize=auto;html=1;exitX=1;exitY=1;exitDx=0;exitDy=0;entryX=0.25;entryY=0;entryDx=0;entryDy=0;" edge="1" parent="1" source="GnsFQ2bvyRAYjjchj4tW-101" target="GnsFQ2bvyRAYjjchj4tW-45">
          <mxGeometry relative="1" as="geometry" />
        </mxCell>
        <mxCell id="GnsFQ2bvyRAYjjchj4tW-104" value="" style="group" vertex="1" connectable="0" parent="1">
          <mxGeometry x="1380" y="-40" width="80" height="110" as="geometry" />
        </mxCell>
        <mxCell id="GnsFQ2bvyRAYjjchj4tW-101" value="" style="image;html=1;image=img/lib/clip_art/networking/Print_Server_Wireless_128x128.png" vertex="1" parent="GnsFQ2bvyRAYjjchj4tW-104">
          <mxGeometry width="80" height="80" as="geometry" />
        </mxCell>
        <mxCell id="GnsFQ2bvyRAYjjchj4tW-102" value="&lt;font style=&quot;font-size: 14px;&quot;&gt;ISP 1&lt;/font&gt;" style="text;html=1;align=center;verticalAlign=middle;resizable=0;points=[];autosize=1;strokeColor=none;fillColor=none;" vertex="1" parent="GnsFQ2bvyRAYjjchj4tW-104">
          <mxGeometry x="9" y="80" width="60" height="30" as="geometry" />
        </mxCell>
        <mxCell id="GnsFQ2bvyRAYjjchj4tW-109" value="" style="group" vertex="1" connectable="0" parent="1">
          <mxGeometry x="2200" y="-51" width="80" height="110" as="geometry" />
        </mxCell>
        <mxCell id="GnsFQ2bvyRAYjjchj4tW-110" value="" style="image;html=1;image=img/lib/clip_art/networking/Print_Server_Wireless_128x128.png" vertex="1" parent="GnsFQ2bvyRAYjjchj4tW-109">
          <mxGeometry width="80" height="80" as="geometry" />
        </mxCell>
        <mxCell id="GnsFQ2bvyRAYjjchj4tW-111" value="&lt;font style=&quot;font-size: 14px;&quot;&gt;ISP 2&lt;/font&gt;" style="text;html=1;align=center;verticalAlign=middle;resizable=0;points=[];autosize=1;strokeColor=none;fillColor=none;" vertex="1" parent="GnsFQ2bvyRAYjjchj4tW-109">
          <mxGeometry x="9" y="80" width="60" height="30" as="geometry" />
        </mxCell>
        <mxCell id="GnsFQ2bvyRAYjjchj4tW-112" style="rounded=0;orthogonalLoop=1;jettySize=auto;html=1;exitX=0;exitY=1;exitDx=0;exitDy=0;entryX=0.75;entryY=0;entryDx=0;entryDy=0;" edge="1" parent="1" source="GnsFQ2bvyRAYjjchj4tW-110" target="GnsFQ2bvyRAYjjchj4tW-51">
          <mxGeometry relative="1" as="geometry" />
        </mxCell>
        <mxCell id="GnsFQ2bvyRAYjjchj4tW-115" value="" style="group" vertex="1" connectable="0" parent="1">
          <mxGeometry x="1781" y="-310" width="112" height="110" as="geometry" />
        </mxCell>
        <mxCell id="GnsFQ2bvyRAYjjchj4tW-113" value="" style="image;html=1;image=img/lib/clip_art/networking/Cloud_Server_128x128.png" vertex="1" parent="GnsFQ2bvyRAYjjchj4tW-115">
          <mxGeometry width="112" height="100" as="geometry" />
        </mxCell>
        <mxCell id="GnsFQ2bvyRAYjjchj4tW-114" value="&lt;font style=&quot;font-size: 14px;&quot;&gt;CLOUD&amp;nbsp;&lt;/font&gt;" style="text;html=1;align=center;verticalAlign=middle;resizable=0;points=[];autosize=1;strokeColor=none;fillColor=none;" vertex="1" parent="GnsFQ2bvyRAYjjchj4tW-115">
          <mxGeometry x="16" y="80" width="80" height="30" as="geometry" />
        </mxCell>
        <mxCell id="GnsFQ2bvyRAYjjchj4tW-116" style="edgeStyle=orthogonalEdgeStyle;rounded=0;orthogonalLoop=1;jettySize=auto;html=1;exitX=0.5;exitY=1;exitDx=0;exitDy=0;entryX=0.25;entryY=0;entryDx=0;entryDy=0;" edge="1" parent="1" source="GnsFQ2bvyRAYjjchj4tW-113" target="GnsFQ2bvyRAYjjchj4tW-47">
          <mxGeometry relative="1" as="geometry" />
        </mxCell>
      </root>
    </mxGraphModel>
  </diagram>
</mxfile>
